<svg width="90" height="30" viewBox="0 0 90 30" fill="none" xmlns="http://www.w3.org/2000/svg">
<path d="M46.8242 19.8047C46.8242 19.3359 46.7461 18.918 46.5898 18.5508C46.4336 18.1836 46.1758 17.8555 45.8164 17.5664C45.4648 17.2695 44.9883 16.9961 44.3867 16.7461C43.793 16.4883 43.0508 16.2344 42.1602 15.9844C41.3086 15.7422 40.5391 15.4766 39.8516 15.1875C39.1641 14.8984 38.5742 14.5664 38.082 14.1914C37.5977 13.8164 37.2266 13.3789 36.9688 12.8789C36.7109 12.3711 36.582 11.7812 36.582 11.1094C36.582 10.4531 36.7227 9.85547 37.0039 9.31641C37.2852 8.77734 37.6797 8.3125 38.1875 7.92188C38.7031 7.53125 39.3086 7.23047 40.0039 7.01953C40.707 6.80859 41.4766 6.70312 42.3125 6.70312C43.5078 6.70312 44.5391 6.92969 45.4062 7.38281C46.2812 7.83594 46.957 8.44922 47.4336 9.22266C47.918 9.98828 48.1602 10.8477 48.1602 11.8008H46.7188C46.7188 11.0586 46.543 10.3984 46.1914 9.82031C45.8477 9.23438 45.3477 8.77734 44.6914 8.44922C44.043 8.11328 43.25 7.94531 42.3125 7.94531C41.375 7.94531 40.5859 8.08984 39.9453 8.37891C39.3125 8.66016 38.832 9.03906 38.5039 9.51562C38.1836 9.98438 38.0234 10.5078 38.0234 11.0859C38.0234 11.4922 38.1016 11.8672 38.2578 12.2109C38.4141 12.5469 38.668 12.8633 39.0195 13.1602C39.3789 13.4492 39.8516 13.7227 40.4375 13.9805C41.0234 14.2305 41.7461 14.4688 42.6055 14.6953C43.5117 14.9453 44.3164 15.2227 45.0195 15.5273C45.7227 15.832 46.3164 16.1836 46.8008 16.582C47.2852 16.9727 47.6523 17.4297 47.9023 17.9531C48.1523 18.4766 48.2773 19.0859 48.2773 19.7812C48.2773 20.4766 48.1289 21.1016 47.832 21.6562C47.543 22.2031 47.1328 22.668 46.6016 23.0508C46.0781 23.4336 45.457 23.7266 44.7383 23.9297C44.0273 24.1328 43.25 24.2344 42.4062 24.2344C41.6484 24.2344 40.8945 24.1367 40.1445 23.9414C39.3945 23.7461 38.707 23.4453 38.082 23.0391C37.4648 22.625 36.9688 22.0938 36.5938 21.4453C36.2266 20.7969 36.043 20.0234 36.043 19.125H37.4727C37.4727 19.8438 37.6172 20.4492 37.9062 20.9414C38.1953 21.4336 38.5781 21.832 39.0547 22.1367C39.5391 22.4414 40.0703 22.6641 40.6484 22.8047C41.2344 22.9375 41.8203 23.0039 42.4062 23.0039C43.3047 23.0039 44.082 22.8711 44.7383 22.6055C45.4023 22.3398 45.9141 21.9688 46.2734 21.4922C46.6406 21.0078 46.8242 20.4453 46.8242 19.8047ZM52.4609 6V24H51.0664V6H52.4609ZM52.1445 16.875L51.5234 16.5234C51.5703 15.7734 51.7227 15.0703 51.9805 14.4141C52.2383 13.7578 52.5859 13.1797 53.0234 12.6797C53.4688 12.1797 53.9883 11.7891 54.582 11.5078C55.1836 11.2266 55.8477 11.0859 56.5742 11.0859C57.207 11.0859 57.7734 11.1719 58.2734 11.3438C58.7734 11.5156 59.1992 11.7891 59.5508 12.1641C59.9023 12.5391 60.168 13.0195 60.3477 13.6055C60.5352 14.1914 60.6289 14.9062 60.6289 15.75V24H59.2227V15.7383C59.2227 14.8633 59.1016 14.1797 58.8594 13.6875C58.6172 13.1875 58.2734 12.832 57.8281 12.6211C57.3828 12.4102 56.8555 12.3047 56.2461 12.3047C55.5742 12.3047 54.9844 12.4531 54.4766 12.75C53.9766 13.0391 53.5547 13.418 53.2109 13.8867C52.875 14.3477 52.6172 14.8438 52.4375 15.375C52.2578 15.8984 52.1602 16.3984 52.1445 16.875ZM63.4648 17.8594V17.4727C63.4648 16.5508 63.5977 15.6992 63.8633 14.918C64.1289 14.1367 64.5078 13.4609 65 12.8906C65.5 12.3203 66.0977 11.8789 66.793 11.5664C67.4883 11.2461 68.2617 11.0859 69.1133 11.0859C69.9727 11.0859 70.75 11.2461 71.4453 11.5664C72.1406 11.8789 72.7383 12.3203 73.2383 12.8906C73.7383 13.4609 74.1211 14.1367 74.3867 14.918C74.6523 15.6992 74.7852 16.5508 74.7852 17.4727V17.8594C74.7852 18.7812 74.6523 19.6328 74.3867 20.4141C74.1211 21.1875 73.7383 21.8594 73.2383 22.4297C72.7461 23 72.1523 23.4453 71.457 23.7656C70.7617 24.0781 69.9883 24.2344 69.1367 24.2344C68.2773 24.2344 67.5 24.0781 66.8047 23.7656C66.1094 23.4453 65.5117 23 65.0117 22.4297C64.5117 21.8594 64.1289 21.1875 63.8633 20.4141C63.5977 19.6328 63.4648 18.7812 63.4648 17.8594ZM64.8594 17.4727V17.8594C64.8594 18.5547 64.9531 19.2148 65.1406 19.8398C65.3281 20.457 65.6016 21.0078 65.9609 21.4922C66.3203 21.9688 66.7656 22.3438 67.2969 22.6172C67.8281 22.8906 68.4414 23.0273 69.1367 23.0273C69.8242 23.0273 70.4297 22.8906 70.9531 22.6172C71.4844 22.3438 71.9297 21.9688 72.2891 21.4922C72.6484 21.0078 72.918 20.457 73.0977 19.8398C73.2852 19.2148 73.3789 18.5547 73.3789 17.8594V17.4727C73.3789 16.7852 73.2852 16.1328 73.0977 15.5156C72.918 14.8984 72.6445 14.3477 72.2773 13.8633C71.918 13.3789 71.4727 12.9961 70.9414 12.7148C70.4102 12.4336 69.8008 12.293 69.1133 12.293C68.4258 12.293 67.8164 12.4336 67.2852 12.7148C66.7617 12.9961 66.3164 13.3789 65.9492 13.8633C65.5898 14.3477 65.3164 14.8984 65.1289 15.5156C64.9492 16.1328 64.8594 16.7852 64.8594 17.4727ZM79.0742 13.7578V28.875H77.668V11.3203H78.9805L79.0742 13.7578ZM87.8867 17.543V17.7891C87.8867 18.7344 87.7773 19.6016 87.5586 20.3906C87.3398 21.1797 87.0234 21.8633 86.6094 22.4414C86.2031 23.0117 85.6992 23.4531 85.0977 23.7656C84.4961 24.0781 83.8125 24.2344 83.0469 24.2344C82.2891 24.2344 81.6133 24.1172 81.0195 23.8828C80.4258 23.6484 79.9141 23.3164 79.4844 22.8867C79.0625 22.4492 78.7227 21.9414 78.4648 21.3633C78.2148 20.7773 78.0391 20.1367 77.9375 19.4414V16.1953C78.0547 15.4297 78.2461 14.7344 78.5117 14.1094C78.7773 13.4844 79.1172 12.9453 79.5312 12.4922C79.9531 12.0391 80.4531 11.6914 81.0312 11.4492C81.6094 11.207 82.2695 11.0859 83.0117 11.0859C83.7852 11.0859 84.4727 11.2383 85.0742 11.543C85.6836 11.8398 86.1953 12.2734 86.6094 12.8438C87.0312 13.4062 87.3477 14.0859 87.5586 14.8828C87.7773 15.6719 87.8867 16.5586 87.8867 17.543ZM86.4805 17.7891V17.543C86.4805 16.8008 86.4023 16.1133 86.2461 15.4805C86.0977 14.8477 85.8672 14.2969 85.5547 13.8281C85.25 13.3516 84.8594 12.9805 84.3828 12.7148C83.9141 12.4492 83.3555 12.3164 82.707 12.3164C82.0352 12.3164 81.4609 12.4297 80.9844 12.6562C80.5156 12.875 80.125 13.168 79.8125 13.5352C79.5 13.8945 79.2539 14.2891 79.0742 14.7188C78.8945 15.1484 78.7617 15.5703 78.6758 15.9844V19.7227C78.8242 20.3164 79.0625 20.8672 79.3906 21.375C79.7188 21.875 80.1562 22.2773 80.7031 22.582C81.2578 22.8789 81.9336 23.0273 82.7305 23.0273C83.3711 23.0273 83.9258 22.8945 84.3945 22.6289C84.8633 22.3633 85.25 21.9922 85.5547 21.5156C85.8672 21.0391 86.0977 20.4844 86.2461 19.8516C86.4023 19.2188 86.4805 18.5312 86.4805 17.7891Z" fill="#3593D7"/>
<g filter="url(#filter0_b_7_5)">
<path d="M8.96289 16.751H4.02441V14.7578H8.96289C9.91927 14.7578 10.6937 14.6055 11.2861 14.3008C11.8786 13.9961 12.3102 13.5729 12.5811 13.0312C12.8604 12.4896 13 11.8717 13 11.1777C13 10.543 12.8604 9.94629 12.5811 9.3877C12.3102 8.8291 11.8786 8.38053 11.2861 8.04199C10.6937 7.69499 9.91927 7.52148 8.96289 7.52148H4.5957V24H2.14551V5.51562H8.96289C10.3594 5.51562 11.54 5.75684 12.5049 6.23926C13.4697 6.72168 14.2018 7.3903 14.7012 8.24512C15.2005 9.09147 15.4502 10.0605 15.4502 11.1523C15.4502 12.3372 15.2005 13.3486 14.7012 14.1865C14.2018 15.0244 13.4697 15.6634 12.5049 16.1035C11.54 16.5352 10.3594 16.751 8.96289 16.751ZM30.6211 13.4629V15.4561H20.6172V13.4629H30.6211ZM20.998 5.51562V24H18.5479V5.51562H20.998ZM32.7539 5.51562V24H30.3164V5.51562H32.7539Z" fill="#0065AD"/>
</g>
<defs>
<filter id="filter0_b_7_5" x="-1.85449" y="1.51562" width="38.6084" height="26.4844" filterUnits="userSpaceOnUse" color-interpolation-filters="sRGB">
<feFlood flood-opacity="0" result="BackgroundImageFix"/>
<feGaussianBlur in="BackgroundImageFix" stdDeviation="2"/>
<feComposite in2="SourceAlpha" operator="in" result="effect1_backgroundBlur_7_5"/>
<feBlend mode="normal" in="SourceGraphic" in2="effect1_backgroundBlur_7_5" result="shape"/>
</filter>
</defs>
</svg>
